<?xml version="1.0" encoding="utf-8"?>
<!-- Generator: Adobe Illustrator 22.0.1, SVG Export Plug-In . SVG Version: 6.00 Build 0)  -->
<svg version="1.1" id="Layer_1" xmlns="http://www.w3.org/2000/svg" xmlns:xlink="http://www.w3.org/1999/xlink" x="0px" y="0px"
	 viewBox="0 0 12 12" style="enable-background:new 0 0 12 12;" xml:space="preserve">
<style type="text/css">
	.st0{clip-path:url(#SVGID_2_);}
	.st1{clip-path:url(#SVGID_6_);}
	.st2{clip-path:url(#SVGID_8_);fill:#CCCCCC;}
	.st3{clip-path:url(#SVGID_10_);}
	.st4{fill:#474747;}
	.st5{fill:#FFFFFF;}
	.st6{fill:#EFCD60;}
	.st7{fill:#FAFAFA;}
	.st8{fill:#97FFDC;}
	.st9{fill:#B0C466;}
</style>
<g>
	<g>
		<defs>
			<path id="SVGID_1_" d="M4.6,7.4C3,7.4,1.7,6.2,1.7,4.6S3,1.7,4.6,1.7c1.6,0,2.9,1.3,2.9,2.9S6.2,7.4,4.6,7.4z M8.4,7.4H7.9
				L7.7,7.3c0.6-0.7,1-1.7,1-2.7c0-2.3-1.9-4.2-4.2-4.2c-2.3,0-4.2,1.9-4.2,4.2s1.9,4.2,4.2,4.2c1,0,2-0.4,2.7-1l0.2,0.2v0.5
				l3.2,3.2l1-1L8.4,7.4z"/>
		</defs>
		<clipPath id="SVGID_2_">
			<use xlink:href="#SVGID_1_"  style="overflow:visible;"/>
		</clipPath>
		<g class="st0">
			<defs>
				<rect id="SVGID_3_" x="-81.2" y="-7.1" width="106.3" height="26.2"/>
			</defs>
			<clipPath id="SVGID_4_">
				<use xlink:href="#SVGID_3_"  style="overflow:visible;"/>
			</clipPath>
		</g>
	</g>
	<g>
		<defs>
			<path id="SVGID_5_" d="M4.6,7.4C3,7.4,1.7,6.2,1.7,4.6S3,1.7,4.6,1.7c1.6,0,2.9,1.3,2.9,2.9S6.2,7.4,4.6,7.4z M8.4,7.4H7.9
				L7.7,7.3c0.6-0.7,1-1.7,1-2.7c0-2.3-1.9-4.2-4.2-4.2c-2.3,0-4.2,1.9-4.2,4.2s1.9,4.2,4.2,4.2c1,0,2-0.4,2.7-1l0.2,0.2v0.5
				l3.2,3.2l1-1L8.4,7.4z"/>
		</defs>
		<use xlink:href="#SVGID_5_"  style="overflow:visible;fill-rule:evenodd;clip-rule:evenodd;fill:#CCCCCC;"/>
		<clipPath id="SVGID_6_">
			<use xlink:href="#SVGID_5_"  style="overflow:visible;"/>
		</clipPath>
		<g class="st1">
			<defs>
				<rect id="SVGID_7_" x="-81.2" y="-7.1" width="106.3" height="26.2"/>
			</defs>
			<use xlink:href="#SVGID_7_"  style="overflow:visible;fill:#CCCCCC;"/>
			<clipPath id="SVGID_8_">
				<use xlink:href="#SVGID_7_"  style="overflow:visible;"/>
			</clipPath>
			<rect x="-2.8" y="-2.8" class="st2" width="17.6" height="17.6"/>
		</g>
	</g>
	<g>
		<defs>
			<path id="SVGID_9_" d="M4.6,7.4C3,7.4,1.7,6.2,1.7,4.6S3,1.7,4.6,1.7c1.6,0,2.9,1.3,2.9,2.9S6.2,7.4,4.6,7.4z M8.4,7.4H7.9
				L7.7,7.3c0.6-0.7,1-1.7,1-2.7c0-2.3-1.9-4.2-4.2-4.2c-2.3,0-4.2,1.9-4.2,4.2s1.9,4.2,4.2,4.2c1,0,2-0.4,2.7-1l0.2,0.2v0.5
				l3.2,3.2l1-1L8.4,7.4z"/>
		</defs>
		<clipPath id="SVGID_10_">
			<use xlink:href="#SVGID_9_"  style="overflow:visible;"/>
		</clipPath>
		<g class="st3">
			<defs>
				<rect id="SVGID_11_" x="-81.2" y="-7.1" width="106.3" height="26.2"/>
			</defs>
			<clipPath id="SVGID_12_">
				<use xlink:href="#SVGID_11_"  style="overflow:visible;"/>
			</clipPath>
		</g>
	</g>
</g>
</svg>
