<?xml version="1.0" encoding="utf-8"?>
<!-- Generator: Adobe Illustrator 22.0.1, SVG Export Plug-In . SVG Version: 6.00 Build 0)  -->
<svg version="1.1" id="Layer_1" xmlns="http://www.w3.org/2000/svg" xmlns:xlink="http://www.w3.org/1999/xlink" x="0px" y="0px"
	 viewBox="0 0 35.6 29.8" style="enable-background:new 0 0 35.6 29.8;" xml:space="preserve">
<style type="text/css">
	.st0{clip-path:url(#SVGID_2_);}
	.st1{clip-path:url(#SVGID_6_);}
	.st2{clip-path:url(#SVGID_8_);fill:#CCCCCC;}
	.st3{clip-path:url(#SVGID_10_);}
	.st4{fill:#474747;}
	.st5{fill:#FFFFFF;}
	.st6{fill:#EFCD60;}
	.st7{fill:#FAFAFA;}
	.st8{fill:#97FFDC;}
	.st9{fill:#B0C466;}
</style>
<path class="st4" d="M35.5,1c-0.1-0.3-0.2-0.5-0.4-0.6c-0.3-0.2-0.7-0.4-1-0.3c-0.1,0-0.2,0-0.3,0.1c-0.7,0.2-1.1,1-0.9,1.7
	C33,2,33.1,2.2,33.2,2.3c-2,6.4-7.9,25.8-8,26c-0.1-0.6-9.4-22.6-9.4-22.6c-0.1-0.2-0.2-0.4-0.5-0.4h-0.3c-0.3,0-0.4,0.1-0.5,0.4
	c0,0-9.7,22.1-9.7,22.4c-0.1-0.5-0.2-0.8-0.4-1.3l-3.1-10c-0.1-0.2-0.2-0.4-0.5-0.4H0l4.3,13.3h1c0,0,9.8-22.3,9.9-22.6
	c0.1,0.3,9.6,22.6,9.6,22.6h1l8.6-27.1c0.1,0,0.2,0,0.3-0.1C35.3,2.5,35.8,1.7,35.5,1z"/>
</svg>
